<svg xmlns="http://www.w3.org/2000/svg" width="8" height="7" viewBox="0 0 8 7">
    <path d="M7.69284 0.308353C7.59522 0.210602 7.47928 0.133053 7.35167 0.0801436C7.22405 0.0272337 7.08726 0 6.94911 0C6.81096 0 6.67417 0.0272337 6.54655 0.0801436C6.41894 0.133053 6.303 0.210602 6.20538 0.308353L2.66808 3.84685L1.79534 2.97293C1.69752 2.87534 1.58143 2.79797 1.45371 2.74525C1.32598 2.69252 1.18913 2.66547 1.05095 2.66563C0.771885 2.66597 0.504385 2.77715 0.307294 2.97471C0.110203 3.17227 -0.000333717 3.44004 7.56861e-07 3.7191C0.000335231 3.99817 0.111513 4.26567 0.309077 4.46276L1.92375 6.07744C2.02137 6.17519 2.13731 6.25273 2.26492 6.30564C2.39254 6.35855 2.52933 6.38579 2.66748 6.38579C2.80563 6.38579 2.94242 6.35855 3.07004 6.30564C3.19765 6.25273 3.31359 6.17519 3.41121 6.07744L7.69165 1.79699C7.7894 1.69937 7.86695 1.58344 7.91986 1.45583C7.97277 1.32821 8 1.19142 8 1.05327C8 0.91512 7.97277 0.778326 7.91986 0.650711C7.86695 0.523096 7.7894 0.407162 7.69165 0.309542" fill="currentColor"/>
</svg>
