<svg width="12" height="16" viewBox="0 0 12 16" fill="none" xmlns="http://www.w3.org/2000/svg">  <path d="M5.9771 0.0666661C5.82053 0.0655756 5.66531 0.0992064 5.52041 0.165617C5.37551 0.232027 5.24381 0.329899 5.1329 0.453585L0.849048 5.24736C0.712301 5.41659 0.638899 5.63815 0.644019 5.86623C0.64914 6.09432 0.732392 6.31147 0.876561 6.4728C1.02073 6.63413 1.21479 6.7273 1.41861 6.73303C1.62243 6.73876 1.82043 6.65662 1.97165 6.50359L5.89627 2.11181C5.9185 2.08956 5.94728 2.07726 5.9771 2.07726C6.00692 2.07726 6.0357 2.08956 6.05793 2.11181L9.98255 6.50359C10.1338 6.65662 10.3318 6.73876 10.5356 6.73303C10.7394 6.7273 10.9335 6.63413 11.0776 6.4728C11.2218 6.31147 11.3051 6.09432 11.3102 5.86623C11.3153 5.63815 11.2419 5.41659 11.1052 5.24736L6.8213 0.453585C6.71039 0.329899 6.57869 0.232027 6.43379 0.165617C6.2889 0.0992064 6.13368 0.0655756 5.9771 0.0666661Z" fill="#666666"/>  <path d="M5.9771 16.0666C5.66223 16.0709 5.35866 15.9355 5.1329 15.69L0.849048 10.8848C0.712301 10.7157 0.638899 10.4943 0.644019 10.2664C0.64914 10.0385 0.732392 9.8215 0.876561 9.6603C1.02073 9.49909 1.21479 9.406 1.41861 9.40027C1.62243 9.39455 1.82043 9.47663 1.97165 9.62953L5.89627 14.018C5.90675 14.0301 5.9193 14.0398 5.93319 14.0464C5.94708 14.053 5.96201 14.0564 5.9771 14.0564C5.99219 14.0564 6.00713 14.053 6.02101 14.0464C6.0349 14.0398 6.04746 14.0301 6.05793 14.018L9.98255 9.62953C10.1338 9.47663 10.3318 9.39455 10.5356 9.40027C10.7394 9.406 10.9335 9.49909 11.0776 9.6603C11.2218 9.8215 11.3051 10.0385 11.3102 10.2664C11.3153 10.4943 11.2419 10.7157 11.1052 10.8848L6.8213 15.69C6.59555 15.9355 6.29198 16.0709 5.9771 16.0666Z" fill="#666666"/></svg>